HIERARCHY
ROOT Hips
{
	OFFSET 0.000000 0.000000 0.000000
	CHANNELS 6 Xposition Yposition Zposition Xrotation Yrotation Zrotation
	JOINT LeftUpLeg_virtual
	{
		OFFSET 0.000000 0.000000 0.000000
		CHANNELS 3 Xrotation Yrotation Zrotation
		JOINT LeftUpLeg
		{
			OFFSET 13.026900 -6.336304 -1.092800
			CHANNELS 3 Xrotation Yrotation Zrotation
			JOINT LeftLeg
			{
				OFFSET 0.524474 -46.096886 9.782700
				CHANNELS 3 Xrotation Yrotation Zrotation
				JOINT LeftFoot
				{
					OFFSET -0.524474 -53.427422 -12.948200
					CHANNELS 3 Xrotation Yrotation Zrotation
					JOINT LeftToeBase
					{
						OFFSET 0.192200 -14.009700 16.364100
						CHANNELS 3 Xrotation Yrotation Zrotation
						JOINT LeftToe_End
						{
							OFFSET -1.784700 -0.561700 9.474800
							CHANNELS 3 Xrotation Yrotation Zrotation
							End Site
							{
								OFFSET 0 0 0
							}
						}
					}
				}
			}
		}
	}
	JOINT RightUpLeg_virtual
	{
		OFFSET 0.000000 0.000000 0.000000
		CHANNELS 3 Xrotation Yrotation Zrotation
		JOINT RightUpLeg
		{
			OFFSET -12.883000 -6.336304 -1.092800
			CHANNELS 3 Xrotation Yrotation Zrotation
			JOINT RightLeg
			{
				OFFSET -0.524587 -46.096825 9.782800
				CHANNELS 3 Xrotation Yrotation Zrotation
				JOINT RightFoot
				{
					OFFSET 0.524587 -53.427383 -12.948300
					CHANNELS 3 Xrotation Yrotation Zrotation
					JOINT RightToeBase
					{
						OFFSET -0.192200 -14.009700 16.364100
						CHANNELS 3 Xrotation Yrotation Zrotation
						JOINT RightToe_End
						{
							OFFSET 1.784700 -0.561700 9.474800
							CHANNELS 3 Xrotation Yrotation Zrotation
							End Site
							{
								OFFSET 0 0 0
							}
						}
					}
				}
			}
		}
	}
	JOINT Spine_virtual
	{
		OFFSET 0.000000 0.000000 0.000000
		CHANNELS 3 Xrotation Yrotation Zrotation
		JOINT Spine
		{
			OFFSET 0.072000 7.257294 -0.789700
			CHANNELS 3 Xrotation Yrotation Zrotation
			JOINT Spine1
			{
				OFFSET 0.000000 12.508769 -0.658067
				CHANNELS 3 Xrotation Yrotation Zrotation
				JOINT Spine1_split
				{
					OFFSET 0.000000 12.508769 -0.658067
					CHANNELS 3 Xrotation Yrotation Zrotation
					JOINT Spine2
					{
						OFFSET 0.000000 12.508769 -0.658067
						CHANNELS 3 Xrotation Yrotation Zrotation
						JOINT Neck_virtual
						{
							OFFSET 0.000000 0.000000 0.000000
							CHANNELS 3 Xrotation Yrotation Zrotation
							JOINT Neck
							{
								OFFSET 0.000000 14.033295 7.520400
								CHANNELS 3 Xrotation Yrotation Zrotation
								JOINT Head
								{
									OFFSET 0.000000 8.198502 5.703100
									CHANNELS 3 Xrotation Yrotation Zrotation
									JOINT HeadTop_End
									{
										OFFSET 0.000000 17.760803 13.332701
										CHANNELS 3 Xrotation Yrotation Zrotation
										End Site
										{
											OFFSET 0 0 0
										}
									}
								}
							}
						}
						JOINT LeftShoulder_virtual
						{
							OFFSET 0.000000 0.000000 0.000000
							CHANNELS 3 Xrotation Yrotation Zrotation
							JOINT LeftShoulder
							{
								OFFSET 6.292450 5.785301 -0.669000
								CHANNELS 3 Xrotation Yrotation Zrotation
								JOINT LeftShoulder_split
								{
									OFFSET 6.292450 5.785301 -0.669000
									CHANNELS 3 Xrotation Yrotation Zrotation
									JOINT LeftArm
									{
										OFFSET 13.907140 -6.093903 1.965100
										CHANNELS 3 Xrotation Yrotation Zrotation
										JOINT LeftForeArm
										{
											OFFSET 34.140198 0.000000 0.000000
											CHANNELS 3 Xrotation Yrotation Zrotation
											JOINT LeftHand
											{
												OFFSET 40.960209 0.000000 0.000000
												CHANNELS 3 Xrotation Yrotation Zrotation
												End Site
												{
													OFFSET 0 0 0
												}
											}
										}
									}
								}
							}
						}
						JOINT RightShoulder_virtual
						{
							OFFSET 0.000000 0.000000 0.000000
							CHANNELS 3 Xrotation Yrotation Zrotation
							JOINT RightShoulder
							{
								OFFSET -6.292450 5.785301 -0.669000
								CHANNELS 3 Xrotation Yrotation Zrotation
								JOINT RightShoulder_split
								{
									OFFSET -6.292450 5.785301 -0.669000
									CHANNELS 3 Xrotation Yrotation Zrotation
									JOINT RightArm
									{
										OFFSET -13.907140 -6.093903 1.965100
										CHANNELS 3 Xrotation Yrotation Zrotation
										JOINT RightForeArm
										{
											OFFSET -34.140198 0.000000 0.000000
											CHANNELS 3 Xrotation Yrotation Zrotation
											JOINT RightHand
											{
												OFFSET -40.960209 0.000000 0.000000
												CHANNELS 3 Xrotation Yrotation Zrotation
												End Site
												{
													OFFSET 0 0 0
												}
											}
										}
									}
								}
							}
						}
					}
				}
			}
		}
	}
}
MOTION
Frames: 6
Frame Time: 0.03333333
0.356487 118.054527 -0.823700 0.000000 0.000000 0.000000 2.912922 -29.006546 0.903246 -15.834252 18.228243 11.841655 13.975619 12.904475 -0.956955 -0.251413 -3.818245 -5.804581 -0.145184 0.007824 -0.311389 0.000000 0.000000 0.000000 2.912922 -29.006546 0.903246 -7.698107 -1.707276 -8.153329 10.281375 9.450099 0.798815 -5.658275 -0.753810 6.746985 -1.288158 -0.027271 0.150331 0.000000 0.000000 0.000000 2.912922 -29.006546 0.903246 7.837640 -0.307564 -2.399433 1.099254 -0.880535 2.383668 0.000000 0.000000 0.000000 0.000000 0.000000 0.000000 1.108681 -0.590400 2.446523 -3.841324 18.019000 -6.496516 -6.333204 13.021593 0.301389 0.000000 0.000000 0.000000 1.108681 -0.590400 2.446523 -0.055833 -8.758006 -0.067358 0.000000 0.000000 0.000000 -55.250787 0.329437 -41.449375 11.606990 -65.826057 13.026167 0.000000 0.000000 0.000000 1.108681 -0.590400 2.446523 4.849281 7.760131 5.560459 0.000000 0.000000 0.000000 -0.933513 -2.176876 61.845628 11.299292 18.943472 -3.987568 0.000000 0.000000 0.000000 
0.315166 118.042168 -0.788540 0.000000 0.000000 0.000000 3.095139 -29.023192 0.987838 -15.984017 18.172616 11.870228 14.005404 12.907452 -0.964832 -0.276376 -3.800935 -5.830920 -0.145182 0.007824 -0.311389 0.000000 0.000000 0.000000 3.095139 -29.023192 0.987838 -7.862813 -1.716418 -8.136590 10.317618 9.488154 0.788930 -5.689648 -0.736696 6.728419 -1.278725 -0.027697 0.171030 0.000000 0.000000 0.000000 3.095139 -29.023192 0.987838 7.837756 -0.304110 -2.400349 1.098784 -0.869316 2.381754 0.000000 0.000000 0.000000 0.000000 0.000000 0.000000 1.110465 -0.579794 2.444749 -3.800850 18.130553 -6.587807 -6.340686 13.102960 0.312260 0.000000 0.000000 0.000000 1.110465 -0.579794 2.444749 -0.072283 -8.728853 -0.064793 0.000000 0.000000 0.000000 -54.827575 0.180457 -41.050420 11.670729 -66.019092 13.220308 0.000000 0.000000 0.000000 1.110465 -0.579794 2.444749 4.839190 7.844301 5.594994 0.000000 0.000000 0.000000 -0.848542 -2.241865 61.787264 11.331116 18.903920 -3.971946 0.000000 0.000000 0.000000 
0.269093 118.015793 -0.757874 0.000000 0.000000 0.000000 3.291368 -29.007376 1.068251 -16.169411 18.021888 11.909272 14.093220 12.991852 -0.987114 -0.315436 -3.752874 -5.870055 -0.135457 0.007772 -0.311388 0.000000 0.000000 0.000000 3.291368 -29.007376 1.068251 -8.059662 -1.755803 -8.102362 10.400437 9.489137 0.778068 -5.747214 -0.724465 6.705338 -1.277218 -0.027999 0.184446 0.000000 0.000000 0.000000 3.291368 -29.007376 1.068251 7.821244 -0.274217 -2.392190 1.117939 -0.846400 2.364979 0.000000 0.000000 0.000000 0.000000 0.000000 0.000000 1.129926 -0.558661 2.427737 -3.726530 18.293524 -6.716440 -6.418725 13.211869 0.340642 0.000000 0.000000 0.000000 1.129926 -0.558661 2.427737 -0.083036 -8.692234 -0.064193 0.000000 0.000000 0.000000 -54.911869 0.413684 -40.900003 11.726549 -66.225842 13.255932 0.000000 0.000000 0.000000 1.129926 -0.558661 2.427737 4.830468 7.962090 5.611524 0.000000 0.000000 0.000000 -0.812634 -2.366843 61.793220 11.316479 18.639480 -3.971516 0.000000 0.000000 0.000000 
0.217739 117.978065 -0.734974 0.000000 0.000000 0.000000 3.498111 -28.937869 1.141225 -16.391412 17.767692 11.952348 14.218800 13.078060 -1.013249 -0.357597 -3.685944 -5.917006 -0.119775 0.007683 -0.311392 0.000000 0.000000 0.000000 3.498111 -28.937869 1.141225 -8.285540 -1.857306 -8.058385 10.521795 9.495261 0.753583 -5.815287 -0.715080 6.691482 -1.274447 -0.026989 0.139756 0.000000 0.000000 0.000000 3.498111 -28.937869 1.141225 7.803386 -0.227068 -2.380587 1.138350 -0.807841 2.349022 0.000000 0.000000 0.000000 0.000000 0.000000 0.000000 1.150805 -0.522313 2.411884 -3.650571 18.500624 -6.895998 -6.530884 13.361920 0.392013 0.000000 0.000000 0.000000 1.150805 -0.522313 2.411884 -0.084658 -8.656198 -0.065728 0.000000 0.000000 0.000000 -55.018533 0.629100 -40.733213 11.744540 -66.427305 13.255448 0.000000 0.000000 0.000000 1.150805 -0.522313 2.411884 4.818683 8.090136 5.643134 0.000000 0.000000 0.000000 -0.742734 -2.498043 61.818601 11.246327 18.307376 -4.026814 0.000000 0.000000 0.000000 
0.154574 117.928917 -0.719337 0.000000 0.000000 0.000000 3.717190 -28.793332 1.209321 -16.651938 17.430778 12.009947 14.378673 13.161298 -1.064895 -0.400025 -3.620849 -5.963800 -0.098623 0.007572 -0.311394 0.000000 0.000000 0.000000 3.717190 -28.793332 1.209321 -8.535784 -2.053168 -8.026555 10.676002 9.509262 0.756539 -5.910158 -0.699905 6.648981 -1.272094 -0.027744 0.173434 0.000000 0.000000 0.000000 3.717190 -28.793332 1.209321 7.754111 -0.194352 -2.377442 1.172170 -0.773998 2.335616 0.000000 0.000000 0.000000 0.000000 0.000000 0.000000 1.184875 -0.489929 2.398012 -3.515184 18.850482 -7.083039 -6.726409 13.673707 0.398016 0.000000 0.000000 0.000000 1.184875 -0.489929 2.398012 -0.066592 -8.552733 -0.064401 0.000000 0.000000 0.000000 -55.354592 0.872105 -40.806142 11.654721 -66.553261 13.123883 0.000000 0.000000 0.000000 1.184875 -0.489929 2.398012 4.791605 8.346625 5.647616 0.000000 0.000000 0.000000 -0.642220 -2.665542 61.868154 11.192374 17.878681 -4.062213 0.000000 0.000000 0.000000 
0.074093 117.866135 -0.708546 0.000000 0.000000 0.000000 3.945265 -28.548116 1.285165 -16.942762 17.013750 12.062968 14.566668 13.228185 -1.147090 -0.441067 -3.572537 -6.003322 -0.071484 0.007421 -0.311398 0.000000 0.000000 0.000000 3.945265 -28.548116 1.285165 -8.808670 -2.304560 -8.005723 10.892687 9.515945 0.775894 -6.054961 -0.679932 6.576870 -1.271903 -0.027371 0.157613 0.000000 0.000000 0.000000 3.945265 -28.548116 1.285165 7.677773 -0.167250 -2.364667 1.198237 -0.742673 2.317008 0.000000 0.000000 0.000000 0.000000 0.000000 0.000000 1.210363 -0.460882 2.378697 -3.116962 19.501092 -7.500652 -7.174771 14.245225 0.435661 0.000000 0.000000 0.000000 1.210363 -0.460882 2.378697 -0.042200 -8.425469 -0.065376 0.000000 0.000000 0.000000 -55.839880 1.199312 -41.001356 11.550240 -66.676416 12.978635 0.000000 0.000000 0.000000 1.210363 -0.460882 2.378697 4.769782 8.654982 5.546202 0.000000 0.000000 0.000000 -0.515008 -2.889064 62.016642 11.182498 17.375815 -4.055854 0.000000 0.000000 0.000000 
